# xmcd
#
# Track frame offsets: 
#        150
#        11705
#        20772
#        31371
#        42395
#        52672
#        64477
#        74013
#        83425
#        93991
#        105960
#        113643
#        123330
#        133084
#        142046
#        150382
#        160893
#        171296
#        181582
#        189662
#        201961
#        212400
#        222220
#        232198
#        241886
#        253594
#        263276
#        272248
#        282894
#        291240
#
# Disc length: 4004 seconds
#
# Revision: 0
# Processed by: cddbd v1.5.2PL0 Copyright (c) Steve Scherf et al.
# Submitted via: ExactAudioCopy v0.99pb4
#
DISCID=ae0fa21e
DTITLE=Various Artist - Cruisin' Country CD 1
DYEAR=2006
DGENRE=Country
TTITLE0=Curtis Lamar - Mean Eyed Cat
TTITLE1=Paul Bowman - Sally Was A Good Ole Girl
TTITLE2=Tommy Overstreet - Little Bit Of Devil
TTITLE3=Jack Reno - Gonna Have To Come And Get It
TTITLE4=Rodger Kaufmann - Country Boy
TTITLE5=Bob Morris - I Knew I'd Lose Again
TTITLE6=Gary Bryant - I'm Just A Nobody
TTITLE7=Bruce Mullen - Love And The Auctioneer
TTITLE8=Collegiates - Only You Can Make Me Well
TTITLE9=Pat Zill - Big Man In A Big House
TTITLE10=Perk Williams - One Sweet Touch
TTITLE11=Pat Zill - Pick Me Up On Your Way Down
TTITLE12=Darrell McCall - Dear One
TTITLE13=Johnny Wildcard - Say It Again
TTITLE14=Jimmy Bradshaw - I've Got Girls
TTITLE15=Sammy Duckitt - No Not Once
TTITLE16=Bobby Austin - Look Out Heart
TTITLE17=Herbie Duncan - Night Time
TTITLE18=Garn Littledyke - Like It Or Not
TTITLE19=Don Mayden - Baby You Got It
TTITLE20=Wayne Morris - I Pay And Pay
TTITLE21=Chick Warner - Keep On Keeping On
TTITLE22=Bobby Sykes - Memphis Address
TTITLE23=Dee Mullins - Love Make The World Go Round
TTITLE24=Ray Frushay - Maybe Maybe This Time
TTITLE25=Calhoun Twins - Look What You've Done To My Heart
TTITLE26=Billy Baker - Once A Bum
TTITLE27=Jimmy Dean - Shark In The Bathtub
TTITLE28=Homer Lee - I've Got Some Cryin To Do
TTITLE29=Carmol Taylor - Free As A Breeze
EXTD=
EXTT0=
EXTT1=
EXTT2=
EXTT3=
EXTT4=
EXTT5=
EXTT6=
EXTT7=
EXTT8=
EXTT9=
EXTT10=
EXTT11=
EXTT12=
EXTT13=
EXTT14=
EXTT15=
EXTT16=
EXTT17=
EXTT18=
EXTT19=
EXTT20=
EXTT21=
EXTT22=
EXTT23=
EXTT24=
EXTT25=
EXTT26=
EXTT27=
EXTT28=
EXTT29=
PLAYORDER=
